<svg xmlns="http://www.w3.org/2000/svg" xmlns:xlink="http://www.w3.org/1999/xlink" version="1.1" x="0px" y="0px" viewBox="-349 211 100 125" style="enable-background:new -349 211 100 100;" xml:space="preserve"><circle cx="-343.7" cy="278.8" r="0.9"/><circle cx="-341.3" cy="278.8" r="0.9"/><circle cx="-338.9" cy="278.8" r="0.9"/><circle cx="-336.5" cy="278.8" r="0.9"/><circle cx="-334.1" cy="278.8" r="0.9"/><circle cx="-331.7" cy="278.8" r="0.9"/><circle cx="-329.3" cy="278.8" r="0.9"/><circle cx="-326.9" cy="278.8" r="0.9"/><circle cx="-324.5" cy="278.8" r="0.9"/><circle cx="-322.1" cy="278.8" r="0.9"/><circle cx="-319.7" cy="278.8" r="0.9"/><circle cx="-319.3" cy="276.1" r="0.9"/><circle cx="-321.7" cy="276.1" r="0.9"/><circle cx="-324.2" cy="276.1" r="0.9"/><circle cx="-326.6" cy="276.1" r="0.9"/><circle cx="-329" cy="276.1" r="0.9"/><circle cx="-331.4" cy="276.1" r="0.9"/><circle cx="-333.9" cy="276.1" r="0.9"/><circle cx="-336.3" cy="276.1" r="0.9"/><circle cx="-338.7" cy="276.1" r="0.9"/><circle cx="-341.1" cy="276.1" r="0.9"/><circle cx="-343.6" cy="276.1" r="0.9"/><circle cx="-318.7" cy="273.5" r="0.9"/><circle cx="-316.5" cy="268.7" r="0.9"/><circle cx="-319.3" cy="268.7" r="0.9"/><circle cx="-322" cy="268.6" r="0.9"/><circle cx="-324.6" cy="268.6" r="0.9"/><circle cx="-327.2" cy="268.6" r="0.9"/><circle cx="-329.8" cy="268.6" r="0.9"/><circle cx="-332.2" cy="268.4" r="0.9"/><circle cx="-334.7" cy="268.4" r="0.9"/><circle cx="-337.3" cy="268.4" r="0.9"/><circle cx="-339.8" cy="268.4" r="0.9"/><circle cx="-342.3" cy="268.4" r="0.9"/><circle cx="-341.6" cy="265.9" r="0.9"/><circle cx="-339" cy="265.9" r="0.9"/><circle cx="-336.4" cy="265.8" r="0.9"/><circle cx="-333.9" cy="265.8" r="0.9"/><circle cx="-331.3" cy="265.9" r="0.9"/><circle cx="-328.8" cy="266.1" r="0.9"/><circle cx="-326.1" cy="266.2" r="0.9"/><circle cx="-323.5" cy="266.2" r="0.9"/><circle cx="-320.7" cy="266.3" r="0.9"/><circle cx="-317.9" cy="266.4" r="0.9"/><circle cx="-315" cy="266.5" r="0.9"/><circle cx="-313.2" cy="264.6" r="0.9"/><circle cx="-316.2" cy="264.3" r="0.9"/><circle cx="-319.2" cy="264.1" r="0.9"/><circle cx="-317.5" cy="262.1" r="0.9"/><circle cx="-322.1" cy="264" r="0.9"/><circle cx="-324.8" cy="263.9" r="0.9"/><circle cx="-327.6" cy="263.8" r="0.9"/><circle cx="-330.1" cy="263.4" r="0.9"/><circle cx="-332.8" cy="263.4" r="0.9"/><circle cx="-335.5" cy="263.4" r="0.9"/><circle cx="-338.1" cy="263.4" r="0.9"/><circle cx="-340.6" cy="263.3" r="0.9"/><circle cx="-339.6" cy="260.9" r="0.9"/><circle cx="-337" cy="261" r="0.9"/><circle cx="-334.3" cy="261" r="0.9"/><circle cx="-331.6" cy="261" r="0.9"/><circle cx="-328.8" cy="261.1" r="0.9"/><circle cx="-326.3" cy="261.6" r="0.9"/><circle cx="-323.4" cy="261.7" r="0.9"/><circle cx="-320.5" cy="261.8" r="0.9"/><circle cx="-314.4" cy="262.4" r="0.9"/><circle cx="-312.3" cy="260.7" r="0.9"/><circle cx="-315.6" cy="260.3" r="0.9"/><circle cx="-318.7" cy="259.9" r="0.9"/><circle cx="-321.8" cy="259.6" r="0.9"/><circle cx="-324.8" cy="259.4" r="0.9"/><circle cx="-327.3" cy="258.9" r="0.9"/><circle cx="-330.2" cy="258.8" r="0.9"/><circle cx="-333" cy="258.7" r="0.9"/><circle cx="-335.8" cy="258.6" r="0.9"/><circle cx="-338.5" cy="258.6" r="0.9"/><circle cx="-337.1" cy="256.3" r="0.9"/><circle cx="-334.3" cy="256.4" r="0.9"/><circle cx="-331.5" cy="256.5" r="0.9"/><circle cx="-328.6" cy="256.6" r="0.9"/><circle cx="-325.7" cy="256.8" r="0.9"/><circle cx="-323" cy="257.5" r="0.9"/><circle cx="-320" cy="257.8" r="0.9"/><circle cx="-321.2" cy="255.6" r="0.9"/><circle cx="-319.2" cy="253.9" r="0.9"/><circle cx="-323.9" cy="254.8" r="0.9"/><circle cx="-326.9" cy="254.6" r="0.9"/><circle cx="-328.2" cy="252.4" r="0.9"/><circle cx="-325.1" cy="252.6" r="0.9"/><circle cx="-321.9" cy="253" r="0.9"/><circle cx="-317.1" cy="252.3" r="0.9"/><circle cx="-314.9" cy="250.9" r="0.9"/><circle cx="-313.7" cy="253.1" r="0.9"/><circle cx="-311.4" cy="251.9" r="0.9"/><circle cx="-319.8" cy="251.3" r="0.9"/><circle cx="-317.6" cy="249.8" r="0.9"/><circle cx="-318.9" cy="247.7" r="0.9"/><circle cx="-320" cy="245.6" r="0.9"/><circle cx="-321.2" cy="243.5" r="0.9"/><circle cx="-322.4" cy="241.5" r="0.9"/><circle cx="-320.2" cy="240.2" r="0.9"/><circle cx="-318.9" cy="242.2" r="0.9"/><circle cx="-317.7" cy="244.3" r="0.9"/><circle cx="-315.4" cy="243.1" r="0.9"/><circle cx="-316.6" cy="241" r="0.9"/><circle cx="-317.8" cy="238.9" r="0.9"/><circle cx="-315.4" cy="237.9" r="0.9"/><circle cx="-314.2" cy="240" r="0.9"/><circle cx="-312.9" cy="242.1" r="0.9"/><circle cx="-311.7" cy="244.2" r="0.9"/><circle cx="-309.2" cy="243.4" r="0.9"/><circle cx="-310.4" cy="241.3" r="0.9"/><circle cx="-311.6" cy="239.1" r="0.9"/><circle cx="-312.9" cy="237" r="0.9"/><circle cx="-310.3" cy="236.3" r="0.9"/><circle cx="-309.1" cy="238.4" r="0.9"/><circle cx="-307.9" cy="240.5" r="0.9"/><circle cx="-306.6" cy="242.7" r="0.9"/><circle cx="-305.3" cy="245" r="0.9"/><circle cx="-302.6" cy="246.9" r="0.9"/><circle cx="-316.5" cy="246.4" r="0.9"/><circle cx="-315.3" cy="248.5" r="0.9"/><circle cx="-312.6" cy="249.8" r="0.9"/><circle cx="-310.2" cy="248.8" r="0.9"/><circle cx="-312.9" cy="247.3" r="0.9"/><circle cx="-314.2" cy="245.2" r="0.9"/><ellipse cx="-310.4" cy="246.3" rx="0.9" ry="0.9"/><ellipse cx="-307.9" cy="245.5" rx="0.9" ry="0.9"/><circle cx="-308.9" cy="250.9" r="0.9"/><circle cx="-306.4" cy="250.1" r="0.9"/><circle cx="-307.7" cy="247.9" r="0.9"/><circle cx="-323.1" cy="250.9" r="0.9"/><circle cx="-326.3" cy="250.5" r="0.9"/><circle cx="-324.3" cy="248.7" r="0.9"/><circle cx="-325.5" cy="246.6" r="0.9"/><circle cx="-326.7" cy="244.5" r="0.9"/><circle cx="-323.4" cy="245" r="0.9"/><circle cx="-324.6" cy="242.9" r="0.9"/><circle cx="-322.2" cy="247.1" r="0.9"/><circle cx="-321" cy="249.2" r="0.9"/><circle cx="-329.4" cy="250.2" r="0.9"/><circle cx="-330.6" cy="248" r="0.9"/><circle cx="-328.7" cy="246.2" r="0.9"/><circle cx="-327.5" cy="248.3" r="0.9"/><circle cx="-315.9" cy="254.4" r="0.9"/><circle cx="-329.9" cy="254.3" r="0.9"/><circle cx="-332.8" cy="254.2" r="0.9"/><circle cx="-335.7" cy="254.1" r="0.9"/><circle cx="-334.1" cy="252" r="0.9"/><circle cx="-332.5" cy="249.9" r="0.9"/><circle cx="-331.2" cy="252.2" r="0.9"/><circle cx="-318" cy="256" r="0.9"/><circle cx="-316.8" cy="258.2" r="0.9"/><circle cx="-314.7" cy="256.5" r="0.9"/><circle cx="-312.5" cy="255.2" r="0.9"/><circle cx="-311.3" cy="257.2" r="0.9"/><circle cx="-308.9" cy="256" r="0.9"/><circle cx="-306.4" cy="255.1" r="0.9"/><circle cx="-307.7" cy="253" r="0.9"/><circle cx="-310.2" cy="253.9" r="0.9"/><circle cx="-305.2" cy="252.3" r="0.9"/><circle cx="-313.5" cy="258.6" r="0.9"/><circle cx="-308.9" cy="261.4" r="0.9"/><circle cx="-310.1" cy="259.3" r="0.9"/><circle cx="-307.7" cy="258.1" r="0.9"/><circle cx="-306.5" cy="260.2" r="0.9"/><circle cx="-304" cy="259.4" r="0.9"/><circle cx="-301.3" cy="258.9" r="0.9"/><circle cx="-298.7" cy="258.7" r="0.9"/><circle cx="-300" cy="256.4" r="0.9"/><circle cx="-297.4" cy="256.3" r="0.9"/><circle cx="-301.3" cy="254.1" r="0.9"/><circle cx="-298.7" cy="253.9" r="0.9"/><circle cx="-300" cy="251.5" r="0.9"/><circle cx="-302.6" cy="251.8" r="0.9"/><circle cx="-303.9" cy="249.5" r="0.9"/><circle cx="-301.3" cy="249.2" r="0.9"/><circle cx="-298.6" cy="249.1" r="0.9"/><circle cx="-305.2" cy="247.4" r="0.9"/><circle cx="-302.6" cy="256.6" r="0.9"/><circle cx="-303.9" cy="254.5" r="0.9"/><circle cx="-305.2" cy="257.2" r="0.9"/><circle cx="-311.1" cy="262.8" r="0.9"/><circle cx="-321.2" cy="273.5" r="0.9"/><circle cx="-323.6" cy="273.5" r="0.9"/><circle cx="-326.1" cy="273.5" r="0.9"/><circle cx="-328.6" cy="273.5" r="0.9"/><circle cx="-331" cy="273.5" r="0.9"/><circle cx="-333.5" cy="273.5" r="0.9"/><circle cx="-335.9" cy="273.5" r="0.9"/><circle cx="-338.4" cy="273.5" r="0.9"/><circle cx="-340.8" cy="273.5" r="0.9"/><circle cx="-343.3" cy="273.5" r="0.9"/><g><circle cx="-317.8" cy="271.1" r="0.9"/><path d="M-321.4,271.1c0,0.5,0.4,0.9,0.9,0.9c0.5,0,0.9-0.4,0.9-0.9c0-0.5-0.4-0.9-0.9-0.9C-321,270.1-321.4,270.5-321.4,271.1z"/><circle cx="-323" cy="271" r="0.9"/><path d="M-326.5,271c0,0.5,0.4,0.9,0.9,0.9c0.5,0,0.9-0.4,0.9-0.9c0-0.5-0.4-0.9-0.9-0.9C-326,270.1-326.5,270.5-326.5,271z"/><circle cx="-328" cy="271" r="0.9"/><circle cx="-330.5" cy="271" r="0.9"/><circle cx="-332.9" cy="271" r="0.9"/><path d="M-336.3,270.9c0,0.5,0.4,0.9,0.9,0.9c0.5,0,0.9-0.4,0.9-0.9c0-0.5-0.4-0.9-0.9-0.9C-335.9,270-336.3,270.4-336.3,270.9z"/><circle cx="-337.9" cy="270.9" r="0.9"/><circle cx="-340.4" cy="270.9" r="0.9"/><circle cx="-342.9" cy="270.9" r="0.9"/></g><circle cx="-253.6" cy="278.8" r="0.9"/><circle cx="-256" cy="278.8" r="0.9"/><circle cx="-258.4" cy="278.8" r="0.9"/><circle cx="-260.8" cy="278.8" r="0.9"/><circle cx="-263.2" cy="278.8" r="0.9"/><circle cx="-265.6" cy="278.8" r="0.9"/><circle cx="-268.1" cy="278.8" r="0.9"/><circle cx="-270.5" cy="278.8" r="0.9"/><circle cx="-272.9" cy="278.8" r="0.9"/><path d="M-276.2,278.8c0,0.5,0.4,0.9,0.9,0.9c0.5,0,0.9-0.4,0.9-0.9c0-0.5-0.4-0.9-0.9-0.9C-275.8,277.9-276.2,278.3-276.2,278.8z"/><circle cx="-277.7" cy="278.8" r="0.9"/><path d="M-277.1,276.1c0-0.5-0.4-0.9-0.9-0.9c-0.5,0-0.9,0.4-0.9,0.9c0,0.5,0.4,0.9,0.9,0.9C-277.5,277-277.1,276.6-277.1,276.1z"/><circle cx="-275.6" cy="276.1" r="0.9"/><circle cx="-273.2" cy="276.1" r="0.9"/><circle cx="-270.8" cy="276.1" r="0.9"/><circle cx="-268.3" cy="276.1" r="0.9"/><circle cx="-265.9" cy="276.1" r="0.9"/><path d="M-262.6,276.1c0-0.5-0.4-0.9-0.9-0.9c-0.5,0-0.9,0.4-0.9,0.9c0,0.5,0.4,0.9,0.9,0.9C-263,277-262.6,276.6-262.6,276.1z"/><path d="M-260.1,276.1c0-0.5-0.4-0.9-0.9-0.9c-0.5,0-0.9,0.4-0.9,0.9c0,0.5,0.4,0.9,0.9,0.9C-260.5,277-260.1,276.6-260.1,276.1z"/><path d="M-257.7,276.1c0-0.5-0.4-0.9-0.9-0.9c-0.5,0-0.9,0.4-0.9,0.9c0,0.5,0.4,0.9,0.9,0.9C-258.1,277-257.7,276.6-257.7,276.1z"/><circle cx="-256.2" cy="276.1" r="0.9"/><circle cx="-253.8" cy="276.1" r="0.9"/><circle cx="-278.6" cy="273.5" r="0.9"/><circle cx="-280.8" cy="268.7" r="0.9"/><path d="M-277.1,268.7c0-0.5-0.4-0.9-0.9-0.9c-0.5,0-0.9,0.4-0.9,0.9c0,0.5,0.4,0.9,0.9,0.9C-277.5,269.6-277.1,269.2-277.1,268.7z"/><circle cx="-275.4" cy="268.6" r="0.9"/><path d="M-271.8,268.6c0-0.5-0.4-0.9-0.9-0.9c-0.5,0-0.9,0.4-0.9,0.9s0.4,0.9,0.9,0.9C-272.2,269.5-271.8,269.1-271.8,268.6z"/><circle cx="-270.1" cy="268.6" r="0.9"/><circle cx="-267.6" cy="268.6" r="0.9"/><circle cx="-265.1" cy="268.4" r="0.9"/><circle cx="-262.6" cy="268.4" r="0.9"/><circle cx="-260.1" cy="268.4" r="0.9"/><circle cx="-257.6" cy="268.4" r="0.9"/><path d="M-254.1,268.4c0-0.5-0.4-0.9-0.9-0.9c-0.5,0-0.9,0.4-0.9,0.9c0,0.5,0.4,0.9,0.9,0.9C-254.6,269.3-254.1,268.9-254.1,268.4z"/><circle cx="-255.8" cy="265.9" r="0.9"/><circle cx="-258.4" cy="265.9" r="0.9"/><path d="M-260,265.8c0-0.5-0.4-0.9-0.9-0.9c-0.5,0-0.9,0.4-0.9,0.9c0,0.5,0.4,0.9,0.9,0.9C-260.4,266.7-260,266.3-260,265.8z"/><circle cx="-263.4" cy="265.8" r="0.9"/><circle cx="-266.1" cy="265.9" r="0.9"/><circle cx="-268.6" cy="266.1" r="0.9"/><circle cx="-271.2" cy="266.2" r="0.9"/><circle cx="-273.9" cy="266.2" r="0.9"/><circle cx="-276.6" cy="266.3" r="0.9"/><circle cx="-279.5" cy="266.4" r="0.9"/><circle cx="-282.3" cy="266.5" r="0.9"/><circle cx="-284.2" cy="264.6" r="0.9"/><path d="M-280.2,264.3c0-0.5-0.4-0.9-0.9-0.9c-0.5,0-0.9,0.4-0.9,0.9c0,0.5,0.4,0.9,0.9,0.9C-280.6,265.2-280.2,264.8-280.2,264.3z"/><circle cx="-278.1" cy="264.1" r="0.9"/><path d="M-278.9,262.1c0-0.5-0.4-0.9-0.9-0.9c-0.5,0-0.9,0.4-0.9,0.9s0.4,0.9,0.9,0.9C-279.3,263-278.9,262.6-278.9,262.1z"/><path d="M-274.4,264c0-0.5-0.4-0.9-0.9-0.9c-0.5,0-0.9,0.4-0.9,0.9c0,0.5,0.4,0.9,0.9,0.9C-274.8,264.9-274.4,264.5-274.4,264z"/><path d="M-271.6,263.9c0-0.5-0.4-0.9-0.9-0.9c-0.5,0-0.9,0.4-0.9,0.9c0,0.5,0.4,0.9,0.9,0.9C-272,264.8-271.6,264.4-271.6,263.9z"/><circle cx="-269.7" cy="263.8" r="0.9"/><circle cx="-267.2" cy="263.4" r="0.9"/><circle cx="-264.5" cy="263.4" r="0.9"/><path d="M-261,263.4c0-0.5-0.4-0.9-0.9-0.9c-0.5,0-0.9,0.4-0.9,0.9c0,0.5,0.4,0.9,0.9,0.9C-261.4,264.3-261,263.9-261,263.4z"/><circle cx="-259.3" cy="263.4" r="0.9"/><circle cx="-256.7" cy="263.3" r="0.9"/><circle cx="-257.8" cy="260.9" r="0.9"/><path d="M-259.4,261c0-0.5-0.4-0.9-0.9-0.9c-0.5,0-0.9,0.4-0.9,0.9c0,0.5,0.4,0.9,0.9,0.9C-259.9,261.9-259.4,261.5-259.4,261z"/><circle cx="-263.1" cy="261" r="0.9"/><path d="M-264.8,261c0-0.5-0.4-0.9-0.9-0.9c-0.5,0-0.9,0.4-0.9,0.9c0,0.5,0.4,0.9,0.9,0.9C-265.3,261.9-264.8,261.5-264.8,261z"/><path d="M-267.6,261.1c0-0.5-0.4-0.9-0.9-0.9c-0.5,0-0.9,0.4-0.9,0.9c0,0.5,0.4,0.9,0.9,0.9C-268,262-267.6,261.6-267.6,261.1z"/><circle cx="-271.1" cy="261.6" r="0.9"/><circle cx="-273.9" cy="261.7" r="0.9"/><circle cx="-276.8" cy="261.8" r="0.9"/><circle cx="-282.9" cy="262.4" r="0.9"/><circle cx="-285" cy="260.7" r="0.9"/><path d="M-280.8,260.3c0-0.5-0.4-0.9-0.9-0.9c-0.5,0-0.9,0.4-0.9,0.9c0,0.5,0.4,0.9,0.9,0.9C-281.2,261.2-280.8,260.8-280.8,260.3z"/><circle cx="-278.6" cy="259.9" r="0.9"/><circle cx="-275.6" cy="259.6" r="0.9"/><path d="M-271.7,259.4c0-0.5-0.4-0.9-0.9-0.9c-0.5,0-0.9,0.4-0.9,0.9c0,0.5,0.4,0.9,0.9,0.9C-272.1,260.4-271.7,260-271.7,259.4z"/><circle cx="-270" cy="258.9" r="0.9"/><circle cx="-267.2" cy="258.8" r="0.9"/><circle cx="-264.4" cy="258.7" r="0.9"/><circle cx="-261.6" cy="258.6" r="0.9"/><circle cx="-258.9" cy="258.6" r="0.9"/><circle cx="-260.2" cy="256.3" r="0.9"/><path d="M-262.1,256.4c0-0.5-0.4-0.9-0.9-0.9c-0.5,0-0.9,0.4-0.9,0.9c0,0.5,0.4,0.9,0.9,0.9C-262.5,257.3-262.1,256.9-262.1,256.4z"/><circle cx="-265.8" cy="256.5" r="0.9"/><circle cx="-268.7" cy="256.6" r="0.9"/><circle cx="-271.7" cy="256.8" r="0.9"/><circle cx="-274.3" cy="257.5" r="0.9"/><circle cx="-277.4" cy="257.8" r="0.9"/><circle cx="-276.1" cy="255.6" r="0.9"/><circle cx="-278.1" cy="253.9" r="0.9"/><circle cx="-273.5" cy="254.8" r="0.9"/><circle cx="-270.4" cy="254.6" r="0.9"/><path d="M-268.2,252.4c0-0.5-0.4-0.9-0.9-0.9c-0.5,0-0.9,0.4-0.9,0.9c0,0.5,0.4,0.9,0.9,0.9C-268.6,253.3-268.2,252.9-268.2,252.4z"/><circle cx="-272.3" cy="252.6" r="0.9"/><circle cx="-275.4" cy="253" r="0.9"/><circle cx="-280.2" cy="252.3" r="0.9"/><circle cx="-282.4" cy="250.9" r="0.9"/><circle cx="-283.7" cy="253.1" r="0.9"/><path d="M-285,251.9c0-0.5-0.4-0.9-0.9-0.9c-0.5,0-0.9,0.4-0.9,0.9c0,0.5,0.4,0.9,0.9,0.9C-285.5,252.8-285,252.4-285,251.9z"/><path d="M-276.6,251.3c0-0.5-0.4-0.9-0.9-0.9c-0.5,0-0.9,0.4-0.9,0.9c0,0.5,0.4,0.9,0.9,0.9C-277,252.3-276.6,251.9-276.6,251.3z"/><circle cx="-279.7" cy="249.8" r="0.9"/><circle cx="-278.5" cy="247.7" r="0.9"/><path d="M-276.4,245.6c0-0.5-0.4-0.9-0.9-0.9c-0.5,0-0.9,0.4-0.9,0.9c0,0.5,0.4,0.9,0.9,0.9C-276.8,246.6-276.4,246.1-276.4,245.6z"/><circle cx="-276.1" cy="243.5" r="0.9"/><path d="M-274,241.5c0-0.5-0.4-0.9-0.9-0.9c-0.5,0-0.9,0.4-0.9,0.9c0,0.5,0.4,0.9,0.9,0.9C-274.4,242.4-274,242-274,241.5z"/><path d="M-276.2,240.2c0-0.5-0.4-0.9-0.9-0.9c-0.5,0-0.9,0.4-0.9,0.9c0,0.5,0.4,0.9,0.9,0.9C-276.6,241.1-276.2,240.7-276.2,240.2z"/><circle cx="-278.4" cy="242.2" r="0.9"/><circle cx="-279.7" cy="244.3" r="0.9"/><circle cx="-282" cy="243.1" r="0.9"/><circle cx="-280.8" cy="241" r="0.9"/><circle cx="-279.5" cy="238.9" r="0.9"/><circle cx="-282" cy="237.9" r="0.9"/><circle cx="-283.2" cy="240" r="0.9"/><circle cx="-284.4" cy="242.1" r="0.9"/><circle cx="-285.7" cy="244.2" r="0.9"/><circle cx="-288.2" cy="243.4" r="0.9"/><circle cx="-286.9" cy="241.3" r="0.9"/><circle cx="-285.7" cy="239.1" r="0.9"/><circle cx="-284.5" cy="237" r="0.9"/><circle cx="-287" cy="236.3" r="0.9"/><circle cx="-288.2" cy="238.4" r="0.9"/><path d="M-288.5,240.5c0-0.5-0.4-0.9-0.9-0.9c-0.5,0-0.9,0.4-0.9,0.9c0,0.5,0.4,0.9,0.9,0.9C-289,241.4-288.5,241-288.5,240.5z"/><circle cx="-290.8" cy="242.7" r="0.9"/><path d="M-292.4,242.3c0-0.5-0.4-0.9-0.9-0.9c-0.5,0-0.9,0.4-0.9,0.9s0.4,0.9,0.9,0.9C-292.8,243.2-292.4,242.8-292.4,242.3z"/><circle cx="-292" cy="240.1" r="0.9"/><circle cx="-290.8" cy="237.9" r="0.9"/><circle cx="-289.5" cy="235.6" r="0.9"/><circle cx="-296" cy="242" r="0.9"/><circle cx="-298.7" cy="241.9" r="0.9"/><circle cx="-301.3" cy="242" r="0.9"/><circle cx="-304" cy="242.3" r="0.9"/><circle cx="-305.2" cy="240" r="0.9"/><circle cx="-306.5" cy="237.9" r="0.9"/><circle cx="-307.8" cy="235.6" r="0.9"/><circle cx="-305.2" cy="235.2" r="0.9"/><circle cx="-304" cy="237.4" r="0.9"/><circle cx="-302.6" cy="239.7" r="0.9"/><circle cx="-302.6" cy="234.8" r="0.9"/><circle cx="-301.2" cy="237.2" r="0.9"/><circle cx="-300" cy="234.7" r="0.9"/><circle cx="-298.7" cy="237.1" r="0.9"/><circle cx="-300" cy="239.5" r="0.9"/><circle cx="-297.4" cy="239.5" r="0.9"/><circle cx="-296" cy="237.2" r="0.9"/><circle cx="-297.3" cy="234.7" r="0.9"/><circle cx="-294.7" cy="234.9" r="0.9"/><circle cx="-294.7" cy="239.7" r="0.9"/><circle cx="-293.4" cy="237.4" r="0.9"/><circle cx="-292.1" cy="235.2" r="0.9"/><circle cx="-292" cy="245" r="0.9"/><circle cx="-294.8" cy="246.9" r="0.9"/><circle cx="-280.8" cy="246.4" r="0.9"/><circle cx="-282" cy="248.5" r="0.9"/><circle cx="-284.8" cy="249.8" r="0.9"/><circle cx="-287.2" cy="248.8" r="0.9"/><circle cx="-284.4" cy="247.3" r="0.9"/><circle cx="-283.2" cy="245.2" r="0.9"/><ellipse cx="-286.9" cy="246.3" rx="0.9" ry="0.9"/><ellipse cx="-289.5" cy="245.5" rx="0.9" ry="0.9"/><circle cx="-288.4" cy="250.9" r="0.9"/><circle cx="-290.9" cy="250.1" r="0.9"/><circle cx="-289.6" cy="247.9" r="0.9"/><circle cx="-274.2" cy="250.9" r="0.9"/><circle cx="-271" cy="250.5" r="0.9"/><circle cx="-273.1" cy="248.7" r="0.9"/><circle cx="-271.9" cy="246.6" r="0.9"/><circle cx="-270.6" cy="244.5" r="0.9"/><circle cx="-274" cy="245" r="0.9"/><circle cx="-272.7" cy="242.9" r="0.9"/><circle cx="-275.1" cy="247.1" r="0.9"/><circle cx="-276.3" cy="249.2" r="0.9"/><circle cx="-268" cy="250.2" r="0.9"/><circle cx="-266.7" cy="248" r="0.9"/><path d="M-267.7,246.2c0-0.5-0.4-0.9-0.9-0.9c-0.5,0-0.9,0.4-0.9,0.9c0,0.5,0.4,0.9,0.9,0.9C-268.1,247.1-267.7,246.7-267.7,246.2z"/><circle cx="-269.8" cy="248.3" r="0.9"/><circle cx="-281.4" cy="254.4" r="0.9"/><circle cx="-267.4" cy="254.3" r="0.9"/><circle cx="-264.5" cy="254.2" r="0.9"/><circle cx="-261.6" cy="254.1" r="0.9"/><path d="M-262.3,252c0-0.5-0.4-0.9-0.9-0.9c-0.5,0-0.9,0.4-0.9,0.9c0,0.5,0.4,0.9,0.9,0.9C-262.7,252.9-262.3,252.5-262.3,252z"/><circle cx="-264.9" cy="249.9" r="0.9"/><circle cx="-266.1" cy="252.2" r="0.9"/><circle cx="-279.3" cy="256" r="0.9"/><circle cx="-280.5" cy="258.2" r="0.9"/><circle cx="-282.6" cy="256.5" r="0.9"/><circle cx="-284.8" cy="255.2" r="0.9"/><path d="M-285.1,257.2c0-0.5-0.4-0.9-0.9-0.9c-0.5,0-0.9,0.4-0.9,0.9c0,0.5,0.4,0.9,0.9,0.9C-285.5,258.1-285.1,257.7-285.1,257.2z"/><circle cx="-288.4" cy="256" r="0.9"/><circle cx="-290.9" cy="255.1" r="0.9"/><circle cx="-289.6" cy="253" r="0.9"/><circle cx="-287.2" cy="253.9" r="0.9"/><circle cx="-292.2" cy="252.3" r="0.9"/><circle cx="-283.8" cy="258.6" r="0.9"/><circle cx="-288.5" cy="261.4" r="0.9"/><circle cx="-287.2" cy="259.3" r="0.9"/><circle cx="-289.6" cy="258.1" r="0.9"/><circle cx="-290.9" cy="260.2" r="0.9"/><circle cx="-293.4" cy="259.4" r="0.9"/><circle cx="-296" cy="258.9" r="0.9"/><circle cx="-296" cy="254.1" r="0.9"/><circle cx="-297.3" cy="251.5" r="0.9"/><path d="M-293.8,251.8c0-0.5-0.4-0.9-0.9-0.9c-0.5,0-0.9,0.4-0.9,0.9c0,0.5,0.4,0.9,0.9,0.9C-294.2,252.7-293.8,252.3-293.8,251.8z"/><circle cx="-293.4" cy="249.5" r="0.9"/><circle cx="-296.1" cy="249.2" r="0.9"/><circle cx="-297.3" cy="246.7" r="0.9"/><circle cx="-300" cy="246.7" r="0.9"/><circle cx="-302.7" cy="244.6" r="0.9"/><circle cx="-300" cy="244.4" r="0.9"/><circle cx="-297.3" cy="244.4" r="0.9"/><circle cx="-294.7" cy="244.5" r="0.9"/><circle cx="-292.2" cy="247.4" r="0.9"/><circle cx="-294.7" cy="256.6" r="0.9"/><circle cx="-293.4" cy="254.5" r="0.9"/><circle cx="-292.1" cy="257.2" r="0.9"/><path d="M-285.3,262.8c0-0.5-0.4-0.9-0.9-0.9c-0.5,0-0.9,0.4-0.9,0.9c0,0.5,0.4,0.9,0.9,0.9C-285.7,263.8-285.3,263.3-285.3,262.8z"/><circle cx="-276.2" cy="273.5" r="0.9"/><circle cx="-273.7" cy="273.5" r="0.9"/><circle cx="-271.3" cy="273.5" r="0.9"/><circle cx="-268.8" cy="273.5" r="0.9"/><circle cx="-266.3" cy="273.5" r="0.9"/><circle cx="-263.9" cy="273.5" r="0.9"/><circle cx="-261.4" cy="273.5" r="0.9"/><circle cx="-259" cy="273.5" r="0.9"/><path d="M-255.6,273.5c0-0.5-0.4-0.9-0.9-0.9c-0.5,0-0.9,0.4-0.9,0.9c0,0.5,0.4,0.9,0.9,0.9C-256,274.5-255.6,274-255.6,273.5z"/><circle cx="-254" cy="273.5" r="0.9"/><g><circle cx="-279.5" cy="271.1" r="0.9"/><path d="M-276,271.1c0,0.5-0.4,0.9-0.9,0.9c-0.5,0-0.9-0.4-0.9-0.9c0-0.5,0.4-0.9,0.9-0.9C-276.4,270.1-276,270.5-276,271.1z"/><circle cx="-274.3" cy="271" r="0.9"/><path d="M-270.9,271c0,0.5-0.4,0.9-0.9,0.9c-0.5,0-0.9-0.4-0.9-0.9c0-0.5,0.4-0.9,0.9-0.9C-271.3,270.1-270.9,270.5-270.9,271z"/><circle cx="-269.3" cy="271" r="0.9"/><circle cx="-266.8" cy="271" r="0.9"/><circle cx="-264.5" cy="271" r="0.9"/><path d="M-261.1,270.9c0,0.5-0.4,0.9-0.9,0.9c-0.5,0-0.9-0.4-0.9-0.9c0-0.5,0.4-0.9,0.9-0.9C-261.5,270-261.1,270.4-261.1,270.9z"/><circle cx="-259.5" cy="270.9" r="0.9"/><circle cx="-257" cy="270.9" r="0.9"/><circle cx="-254.5" cy="270.9" r="0.9"/></g><text x="-349" y="326" fill="#000000" font-size="5px" font-weight="bold" font-family="'Helvetica Neue', Helvetica, Arial-Unicode, Arial, Sans-serif">Created by Sarah Lawrence</text><text x="-349" y="331" fill="#000000" font-size="5px" font-weight="bold" font-family="'Helvetica Neue', Helvetica, Arial-Unicode, Arial, Sans-serif">from the Noun Project</text></svg>